<svg width="32" height="32" viewBox="0 0 32 32" fill="none" xmlns="http://www.w3.org/2000/svg">
<rect width="32" height="32" fill="white"/>
<path d="M17.4834 7.2603C18.1638 8.45513 17.7489 9.98185 16.5486 10.6622C15.3538 11.3426 13.827 10.9278 13.1466 9.7274C12.4663 8.53257 12.8811 7.01691 14.0704 6.33099C15.2653 5.64507 16.7864 6.05994 17.4724 7.25477C17.4724 7.25477 17.4724 7.25477 17.4724 7.2603H17.4834Z" fill="#E72076"/>
<path d="M21.8092 14.7446C22.4895 15.9394 22.0747 17.4661 20.8798 18.1465C19.685 18.8269 18.1583 18.412 17.4779 17.2172C16.7975 16.0224 17.2124 14.5012 18.4072 13.8152C19.602 13.1349 21.1288 13.5497 21.8092 14.7446Z" fill="#E72076"/>
<path d="M26.1293 22.2344C26.8097 23.4292 26.3949 24.956 25.2 25.6364C24.0052 26.3167 22.4785 25.9019 21.7981 24.707C21.1177 23.5122 21.5326 21.991 22.7274 21.3051C23.9222 20.6192 25.449 21.034 26.1293 22.2344Z" fill="#E72076"/>
<path d="M8.36733 16.9074C7.86395 17.7814 8.16819 18.8988 9.04218 19.3967C9.91618 19.8945 11.0336 19.5958 11.5314 18.7218C12.0348 17.8478 11.7305 16.7304 10.8566 16.2326C9.98256 15.7292 8.8707 16.0334 8.37286 16.9019C8.37286 16.9019 8.37286 16.9019 8.37286 16.9074H8.36733Z" fill="#E72076"/>
<path d="M5.17006 24.1207C4.82156 24.7181 5.02623 25.4815 5.62365 25.8299C6.22106 26.1784 6.98443 25.9738 7.33292 25.3764C7.68141 24.7789 7.47674 24.0156 6.87932 23.6671C6.87379 23.6671 6.86826 23.6616 6.86273 23.656C6.26532 23.3241 5.51302 23.5288 5.17006 24.1207Z" fill="#E72076"/>
</svg>
