<svg width="32" height="32" viewBox="0 0 32 32" fill="none" xmlns="http://www.w3.org/2000/svg">
<rect width="32" height="32" fill="#302C2C"/>
<path d="M21.8905 17.2763H24.7429C24.8111 17.2763 24.8765 17.2492 24.9247 17.201C24.9729 17.1527 25 17.0873 25 17.0191V14.962C25 14.8938 24.9729 14.8284 24.9247 14.7802C24.8765 14.7319 24.8111 14.7048 24.7429 14.7048H20.7457L17.5966 7.63199C17.5696 7.57144 17.5257 7.52 17.4701 7.4839C17.4145 7.4478 17.3497 7.42859 17.2834 7.42859H14.7166C14.6503 7.42859 14.5855 7.4478 14.5299 7.4839C14.4743 7.52 14.4304 7.57144 14.4034 7.63199L11.2544 14.7048H7.25714C7.18894 14.7048 7.12354 14.7319 7.07532 14.7802C7.02709 14.8284 7 14.8938 7 14.962V17.0191C7 17.0873 7.02709 17.1527 7.07532 17.201C7.12354 17.2492 7.18894 17.2763 7.25714 17.2763H10.1095L7.02255 24.2097C7.00511 24.2488 6.99774 24.2917 7.00111 24.3345C7.00447 24.3772 7.01846 24.4184 7.0418 24.4543C7.06515 24.4903 7.0971 24.5198 7.13477 24.5403C7.17244 24.5607 7.21462 24.5714 7.25748 24.5714H9.5531C9.61938 24.5714 9.68425 24.5522 9.73984 24.5161C9.79543 24.48 9.83937 24.4286 9.86633 24.368L16 10.5916L22.1337 24.368C22.1606 24.4286 22.2046 24.48 22.2602 24.5161C22.3158 24.5522 22.3806 24.5714 22.4469 24.5714H24.7426C24.7854 24.5714 24.8276 24.5607 24.8653 24.5403C24.9029 24.5198 24.9349 24.4903 24.9582 24.4544C24.9816 24.4184 24.9956 24.3772 24.9989 24.3345C25.0023 24.2918 24.9949 24.2489 24.9775 24.2097L21.8905 17.2763Z" fill="white"/>
</svg>
