<svg width="32" height="32" viewBox="0 0 32 32" fill="none" xmlns="http://www.w3.org/2000/svg">
<path d="M0 6C0 2.68629 2.68629 0 6 0H26C29.3137 0 32 2.68629 32 6V26C32 29.3137 29.3137 32 26 32H6C2.68629 32 0 29.3137 0 26V6Z" fill="#27D17F"/>
<path fill-rule="evenodd" clip-rule="evenodd" d="M18.4182 9.855H18.4181L18.0952 9.95922V11.2022C18.0952 11.8262 17.6935 12.3915 17.1185 12.5768L13.7976 13.6472V15.4895L18.1622 14.0828C19.1975 13.7533 19.8155 12.8398 19.8155 11.6391V10.8147C19.8155 10.2519 19.1844 9.60706 18.4182 9.855Z" fill="white"/>
<path fill-rule="evenodd" clip-rule="evenodd" d="M11.4733 9.32951L17.643 7.34113C18.3171 7.12433 18.8516 7.13617 19.1743 7.17462L18.4007 6.59714C18.0441 6.33302 16.9566 5.715 15.6156 6.15189L9.75416 8.0411L11.4733 9.32951Z" fill="white"/>
<path fill-rule="evenodd" clip-rule="evenodd" d="M20.8733 14.7859C20.8733 14.7859 21.963 13.7748 21.963 11.602V10.6826C21.963 9.25189 20.3512 6.92736 17.7706 7.76061L11.6489 9.7335V21.3372L13.3679 20.7832V17.9308L18.8928 16.1503C19.9226 15.8218 20.781 16.6474 20.781 17.5656V18.6965C20.781 19.8478 19.7865 21.4804 18.2268 21.9811L9.75425 24.7116L11.4732 26L19.1056 23.5403C20.7168 23.0164 22.5 21.6034 22.5 18.6034V17.4483C22.5 15.6343 20.8733 14.7859 20.8733 14.7859ZM18.291 14.5019L13.3679 16.0886V11.0219L18.2876 9.43632C19.3146 9.10765 20.244 9.94664 20.244 10.8142L20.2443 11.6391C20.2443 13.0821 19.4719 14.1231 18.291 14.5019Z" fill="white"/>
<path fill-rule="evenodd" clip-rule="evenodd" d="M20.3513 18.6965V17.567C20.3513 16.9288 19.748 16.3348 19.0209 16.5698L18.6323 16.6951V18.2589C18.6323 19.0296 18.1492 19.7031 17.4301 19.9348L11.2193 21.9363L11.2192 9.68376L9.5 8.39535V24.3328L18.0973 21.5622C19.4456 21.1277 20.3513 19.7297 20.3513 18.6965Z" fill="white"/>
</svg>
