<svg width="32" height="32" viewBox="0 0 32 32" fill="none" xmlns="http://www.w3.org/2000/svg">
<rect width="32" height="32" fill="#DE3633"/>
<ellipse cx="16.1832" cy="16.0454" rx="9.18318" ry="8.95458" fill="#E87270"/>
<path d="M16.1832 24.9999C11.1114 24.9999 7 20.9908 7 16.0454C9.21544 23.4889 16.1832 21.2322 17.6467 18.4799C18.611 16.6666 19.976 15.9381 20.4878 15.7375C17.1324 18.7091 20.6962 22.5519 23.689 21.5979C23.7779 21.5696 23.8611 21.6814 23.7974 21.7481C21.0988 24.5764 17.7643 24.9999 16.1832 24.9999Z" fill="#F2AFAD"/>
<path d="M7 16.0454C7 11.0999 10.458 7.70647 16.0971 6.68509C16.5958 6.58153 17.9103 6.40668 18.9819 5.045C19.0347 4.97784 19.1413 4.98654 19.1698 5.06649C19.4729 5.91692 19.2681 7.63016 16.3267 8.88176C12.3808 10.5607 14.447 13.5409 14.7483 13.8208C15.0496 14.1006 16.7715 15.7656 19.7704 13.8208C21.1484 12.9271 23.8877 12.7903 25.9785 15.0721C26.0358 15.1346 25.9692 15.2284 25.8866 15.2049C21.1767 13.8688 18.5988 16.9664 17.8907 18.7178C17.3318 19.9289 16.1688 21.2922 12.8543 21.5721C9.53972 21.8519 7.11479 19.1655 7 16.0454Z" fill="white"/>
</svg>
